<mxfile host="app.diagrams.net" modified="2024-05-21T03:43:03.782Z" agent="Mozilla/5.0 (Windows NT 10.0; Win64; x64) AppleWebKit/537.36 (KHTML, like Gecko) Chrome/125.0.0.0 Safari/537.36 Edg/125.0.0.0" etag="L2ptuGq1OUREHwIG_E7A" version="24.4.4" type="github">
  <diagram name="第 1 页" id="gKaIRTgGj5cVVnnhJqOr">
    <mxGraphModel dx="786" dy="459" grid="1" gridSize="10" guides="1" tooltips="1" connect="1" arrows="1" fold="1" page="1" pageScale="1" pageWidth="827" pageHeight="1169" math="0" shadow="0">
      <root>
        <mxCell id="0" />
        <mxCell id="1" parent="0" />
        <mxCell id="LI7bQ78Abt8URkPQbvv9-10" value="" style="rounded=0;whiteSpace=wrap;html=1;fillColor=#dae8fc;strokeColor=#0d0d0d;container=0;fontFamily=Times New Roman;" parent="1" vertex="1">
          <mxGeometry x="190" y="580" width="360" height="140" as="geometry" />
        </mxCell>
        <mxCell id="_D8b1eLCkrFsFUPpdv43-3" value="" style="edgeStyle=orthogonalEdgeStyle;rounded=0;orthogonalLoop=1;jettySize=auto;html=1;fontFamily=Times New Roman;" parent="1" source="LI7bQ78Abt8URkPQbvv9-13" target="LI7bQ78Abt8URkPQbvv9-29" edge="1">
          <mxGeometry relative="1" as="geometry" />
        </mxCell>
        <mxCell id="LI7bQ78Abt8URkPQbvv9-13" value="eSwitch" style="rounded=0;whiteSpace=wrap;html=1;fillColor=#fff2cc;strokeColor=#080808;container=0;fontFamily=Times New Roman;" parent="1" vertex="1">
          <mxGeometry x="250" y="660" width="231.25" height="50" as="geometry" />
        </mxCell>
        <mxCell id="LI7bQ78Abt8URkPQbvv9-14" value="ARM" style="rounded=0;whiteSpace=wrap;html=1;horizontal=1;verticalAlign=top;fillColor=#fff2cc;strokeColor=#080808;container=0;fontFamily=Times New Roman;" parent="1" vertex="1">
          <mxGeometry x="249" y="590" width="130" height="60" as="geometry" />
        </mxCell>
        <mxCell id="LI7bQ78Abt8URkPQbvv9-19" value="&amp;nbsp;GPUDirect&amp;nbsp;" style="rounded=0;whiteSpace=wrap;html=1;fillColor=#f8cecc;strokeColor=#080808;container=0;fontFamily=Times New Roman;" parent="1" vertex="1">
          <mxGeometry x="400" y="590" width="81.25" height="30" as="geometry" />
        </mxCell>
        <mxCell id="LI7bQ78Abt8URkPQbvv9-21" value="Accelerator&amp;nbsp;" style="rounded=0;whiteSpace=wrap;html=1;fillColor=#f8cecc;strokeColor=#080808;container=0;fontFamily=Times New Roman;" parent="1" vertex="1">
          <mxGeometry x="400" y="620" width="81.25" height="30" as="geometry" />
        </mxCell>
        <mxCell id="LI7bQ78Abt8URkPQbvv9-23" value="RAM" style="rounded=0;whiteSpace=wrap;html=1;fillColor=#d5e8d4;strokeColor=#080808;container=0;fontFamily=Times New Roman;" parent="1" vertex="1">
          <mxGeometry x="200" y="590" width="30" height="120" as="geometry" />
        </mxCell>
        <mxCell id="LI7bQ78Abt8URkPQbvv9-24" value="CORE" style="rounded=0;whiteSpace=wrap;html=1;fontSize=8;labelBackgroundColor=none;strokeColor=#080808;fillColor=#dae8fc;container=0;fontFamily=Times New Roman;" parent="1" vertex="1">
          <mxGeometry x="269" y="612" width="30" height="30" as="geometry" />
        </mxCell>
        <mxCell id="LI7bQ78Abt8URkPQbvv9-28" value="CORE" style="rounded=0;whiteSpace=wrap;html=1;fontSize=8;labelBackgroundColor=none;strokeColor=#080808;fillColor=#dae8fc;container=0;fontFamily=Times New Roman;" parent="1" vertex="1">
          <mxGeometry x="299" y="612" width="30" height="30" as="geometry" />
        </mxCell>
        <mxCell id="LI7bQ78Abt8URkPQbvv9-29" value="CORE" style="rounded=0;whiteSpace=wrap;html=1;fontSize=8;labelBackgroundColor=none;strokeColor=#080808;fillColor=#dae8fc;container=0;fontFamily=Times New Roman;" parent="1" vertex="1">
          <mxGeometry x="329" y="612" width="30" height="30" as="geometry" />
        </mxCell>
        <mxCell id="LI7bQ78Abt8URkPQbvv9-11" value="HOST" style="rounded=0;whiteSpace=wrap;html=1;fillColor=#647687;fontColor=#ffffff;strokeColor=#000000;container=0;fontFamily=Times New Roman;" parent="1" vertex="1">
          <mxGeometry x="501.25" y="590" width="38.75" height="120" as="geometry" />
        </mxCell>
        <mxCell id="LI7bQ78Abt8URkPQbvv9-32" value="" style="shape=flexArrow;endArrow=classic;startArrow=classic;html=1;rounded=0;startWidth=8.571428571428571;startSize=2.954285714285714;endWidth=8.571428571428571;endSize=2.954285714285714;width=4.761904761904762;fillColor=default;fontFamily=Times New Roman;" parent="1" edge="1">
          <mxGeometry width="100" height="100" relative="1" as="geometry">
            <mxPoint x="370" y="619.76" as="sourcePoint" />
            <mxPoint x="410" y="619.76" as="targetPoint" />
          </mxGeometry>
        </mxCell>
        <mxCell id="LI7bQ78Abt8URkPQbvv9-34" value="" style="shape=flexArrow;endArrow=classic;startArrow=classic;html=1;rounded=0;startWidth=8.571428571428571;startSize=2.954285714285714;endWidth=8.571428571428571;endSize=2.954285714285714;width=4.761904761904762;fillColor=default;fontFamily=Times New Roman;" parent="1" edge="1">
          <mxGeometry width="100" height="100" relative="1" as="geometry">
            <mxPoint x="220" y="624" as="sourcePoint" />
            <mxPoint x="260" y="624" as="targetPoint" />
          </mxGeometry>
        </mxCell>
        <mxCell id="_D8b1eLCkrFsFUPpdv43-2" value="Receive Side Scaling (RSS)&amp;nbsp;" style="rounded=0;whiteSpace=wrap;html=1;fillColor=#99CCFF;strokeColor=#080808;container=0;fontFamily=Times New Roman;" parent="1" vertex="1">
          <mxGeometry x="250" y="667.5" width="91.25" height="35" as="geometry" />
        </mxCell>
        <mxCell id="LI7bQ78Abt8URkPQbvv9-35" value="" style="shape=flexArrow;endArrow=classic;startArrow=classic;html=1;rounded=0;startWidth=8.571428571428571;startSize=2.954285714285714;endWidth=8.571428571428571;endSize=2.954285714285714;width=4.761904761904762;fillColor=default;exitX=0.5;exitY=0;exitDx=0;exitDy=0;fontFamily=Times New Roman;" parent="1" edge="1">
          <mxGeometry width="100" height="100" relative="1" as="geometry">
            <mxPoint x="365.3350000000001" y="640" as="sourcePoint" />
            <mxPoint x="365" y="670" as="targetPoint" />
          </mxGeometry>
        </mxCell>
      </root>
    </mxGraphModel>
  </diagram>
</mxfile>
